/* XPM */
static char *a901180ef54641f2ec89d83b01f441f6W5a5EVgaUpdYfovc[] = {
/* columns rows colors chars-per-pixel */
"64 64 202 2 ",
"   c None",
".  c #0E120F",
"X  c #12170D",
"o  c #101410",
"O  c #121411",
"+  c #121812",
"@  c #131C12",
"#  c #1A1D19",
"$  c #2B1313",
"%  c #231D1D",
"&  c #301416",
"*  c #142213",
"=  c #162015",
"-  c #152715",
";  c #1A2717",
":  c #1E2916",
">  c #1A2418",
",  c #1D221C",
"<  c #1F2B1D",
"1  c #1A3218",
"2  c #1D311A",
"3  c #22221C",
"4  c #28211C",
"5  c #203A1C",
"6  c #203A1E",
"7  c #232322",
"8  c #232423",
"9  c #212D20",
"0  c #3D2626",
"q  c #243123",
"w  c #2A3226",
"e  c #233C21",
"r  c #2A3827",
"t  c #2C3228",
"y  c #2D3529",
"u  c #2E342A",
"i  c #303521",
"p  c #33322B",
"a  c #31342F",
"s  c #383D2D",
"d  c #363831",
"f  c #3F3A36",
"g  c #3A3F37",
"h  c #4D2122",
"j  c #423C2A",
"k  c #6A2829",
"l  c #24401F",
"z  c #234321",
"x  c #2C4524",
"c  c #244921",
"v  c #274E24",
"b  c #304529",
"n  c #31412F",
"m  c #2B5527",
"M  c #2F5B29",
"N  c #375227",
"B  c #34502D",
"V  c #365C2E",
"C  c #374632",
"Z  c #384034",
"A  c #33652E",
"S  c #3A672F",
"D  c #3A6036",
"F  c #356B30",
"G  c #376D31",
"H  c #3A6F32",
"J  c #3D6837",
"K  c #3E7133",
"L  c #404136",
"P  c #494935",
"I  c #404139",
"U  c #54493F",
"Y  c #4B5F3C",
"T  c #63563E",
"R  c #45602F",
"E  c #426A39",
"W  c #446F3B",
"Q  c #417536",
"!  c #477735",
"~  c #4C7B37",
"^  c #44743D",
"/  c #4B763E",
"(  c #437A3B",
")  c #517F38",
"_  c #4B4741",
"`  c #574545",
"'  c #594747",
"]  c #554E42",
"[  c #534848",
"{  c #515149",
"}  c #625641",
"|  c #615D54",
" . c #785C5C",
".. c #556D40",
"X. c #516B4D",
"o. c #467C40",
"O. c #527C40",
"+. c #5F7C4A",
"@. c #636B53",
"#. c #6B6960",
"$. c #6F6C62",
"%. c #73726A",
"&. c #8B3839",
"*. c #A23A3B",
"=. c #9F5455",
"-. c #B34546",
";. c #887755",
":. c #907F5B",
">. c #826363",
",. c #8F7071",
"<. c #A27E7D",
"1. c #C24647",
"2. c #CC4F51",
"3. c #E15657",
"4. c #EE5C5E",
"5. c #D66465",
"6. c #F47677",
"7. c #56823B",
"8. c #5D873E",
"9. c #638C3F",
"0. c #4C8044",
"q. c #4E8646",
"w. c #548745",
"e. c #5A8141",
"r. c #5F8745",
"t. c #5D854D",
"y. c #518C4A",
"u. c #538E4C",
"i. c #56914D",
"p. c #5C954F",
"a. c #5F9751",
"s. c #668C45",
"d. c #6C8F49",
"f. c #73934D",
"g. c #678A50",
"h. c #6F8D53",
"j. c #609050",
"k. c #629A52",
"l. c #669C54",
"z. c #6C9850",
"x. c #6A9E56",
"c. c #789854",
"v. c #7D9857",
"b. c #779158",
"n. c #6DA257",
"m. c #77A153",
"M. c #72A55A",
"N. c #79A85E",
"B. c #7FAE5F",
"V. c #76A264",
"C. c #7FA56D",
"Z. c #82985D",
"A. c #82A75D",
"S. c #879C63",
"D. c #8C887A",
"F. c #908D7F",
"G. c #A48C63",
"H. c #B49A6C",
"J. c #85AC68",
"K. c #93AD6D",
"L. c #86B362",
"P. c #8BB764",
"I. c #8DB867",
"U. c #8BB36B",
"Y. c #91B96A",
"T. c #94BB6E",
"R. c #88AB70",
"E. c #94B873",
"W. c #99BD72",
"Q. c #90B079",
"!. c #9AB77E",
"~. c #9CBC79",
"^. c #BFA373",
"/. c #C7AC78",
"(. c #CDAF7B",
"). c #CEB07C",
"_. c #D4B57F",
"`. c #A0C07A",
"'. c #B38181",
"]. c #A4BE82",
"[. c #A9A594",
"{. c #D28585",
"}. c #CF9897",
"|. c #C69B9B",
" X c #D49E9D",
".X c #F88687",
"XX c #E79A9A",
"oX c #F69D9D",
"OX c #D8B982",
"+X c #DDBD85",
"@X c #E3A4A4",
"#X c #E9B6B5",
"$X c #FCB8B8",
"%X c #AAC384",
"&X c #B0C68B",
"*X c #E5C489",
"=X c #E8C88D",
"-X c #EECD8F",
";X c #F3D192",
":X c #F8D696",
">X c #FEDB99",
",X c #FFC1C0",
/* pixels */
"                                                                                                                                ",
"                                                                                                                                ",
"                                                                U ` '     [ ` ` '                                               ",
"                                                              7 <.,X{.% [ '.oX$X|.#                                             ",
"                                                              O <.,X5.k &.5.3..X{. .8                                           ",
"                                                              O <.oX4.1.*.-.3.4.6.@X`                                           ",
"                                                              7 =.4.1.*.*.-.1.2.oX X[                                           ",
"                                                          # 3  .5.1.*.*.*.*.*.-.}.|                                             ",
"                                                          p '.@X6.3.2.*.1.3.3.{.'                                               ",
"                                                          _ XX6.6.4.2.3.6.oX@X Xt                                               ",
"                                                             .@X$X@X}. X@X>.0 p                                                 ",
"                                                              ,.#X` % 4 0 k &.$                                                 ",
"                                                              8 >.f   & &.*.*.$                                                 ",
"                                                                O     3 k &.*.& g C : u                                         ",
"                                    $.#.                                O h k i Y R.) N u                                       ",
"                                  g P P N g                               n x j.~.n.z.e.-                                       ",
"                                a V V.J.R...,                           t W x.I.~.i.z.e.-                                       ",
"                                @ w.B.M.R.g.z a                       Z E l.].T.x.a.z.! -                                       ",
"                                = g.%Xn.M.k.M a                     w J u.Q.&XI.i.l.K.+.-                                       ",
"                              u D l.U.a.Q.U.A >                     < q.k.E.T.L.i.V.!.O.-                                       ",
"                              + ^ n.N.y.J.L.F O                   u E y.M.%X~.x.u.x.A.! -                                       ",
"                              . / E.!.i.].!.F O                   + o.k.~.%XI.a.u.x.Z.! -                                       ",
"                              9 0.Y.J.y.A.].E ,                   r o.k.T.W.P.a.p.A.d.! -                                       ",
"                            , J p.T.!.i.J.m.M p                 _ J i.n.`.].B.p.a.U.h.F -                 D.                    ",
"                            t J n.E.M.u.R.h.V +                 u J a.I.W.I.x.y.j.A.) A -           '.{ 5 5 s P {               ",
"                            I E I.!.i.p.c./ m +                 L J a.W.%XP.l.y.p.S.s.m 3         [.z x q.k.R.K.B {             ",
"      $.g 8 %.              Z J P.E.i.n.J./ z                   # J a.T.`.P.l.y.p.S.g.1           n ^ i.n.W.E.k.( B             ",
"      C Y @.C 7             Z E ].!.i.V.c.S @                   L J a.T.`.P.l.y.w.c.7.1         g W i.M.].E.V.u.l.7.>           ",
"  %.C 0.M.~.j.N n           O E ~.B.y.z.d.S @                   u J a.P.P.B.p.y.r.b.Q 1 $.      x i.n.%X].l.y.l.m.b.b           ",
"    Y k.u.n.E.C.W Z         O E I.!.q.g.f.S @                   # J a.P.I.n.u.u.s.g.F 1 {   [.n ^ x.P.`.B.i.u.M.K.b.m .         ",
"  | @.V.y.a.Y.E.l.V t       O J n.U.o.+.d.S =                   # J a.W.%Xn.u.u.9.7.F 1       l k.P.&XY.l.u.l.L.v.~ v 3         ",
"  a ..U.a.i.n.`.~.i.m t     O m a.Q.Q ~ ~ 1                     L J a.Y.W.M.y.( s.7.c O     q W n.&X%Xx.u.k.L.K.f.K v C         ",
"    V ].U.p.i.N.Y.L.( c 8     > S r.F g.+.-                     3 M i.B.~.C.( ^ Z.8.2       ; ^ n.&X~.p.y.n.A.f.~ F v ,         ",
"    B N.Y.J.i.i.M.].t.m 3     @ V 8.H ) ^ >                     O v F O.f.7.G 7.f.7.6     [.1 ! P.T.l.i.p.m.v.f.K M =           ",
"    , E I.].a.y.i.z.Z.K z |   + B b.) ~ x                         ; M O.v.! F 8.Z.J e       6 K J.C.q.q.s.f.s.~ F v w           ",
"    O V B.~.B.p.q.7.d.! v t     @ W r.S : 7                       O v / r.F G s.e.v .       3 O.9.! F Q d.Z.~ G m #             ",
"      5 q.].W.z.( H h.8.K 2     O R +.2 i P C { F.                  ; / g.F H b.^ c O       p b.! F 0.9.9.7.M c q               ",
"      . M t.S.9.7.H G e.g.2       u x J x.].A.x 9                   w N 7.K ! h.J e     #.[ X N G Q b.s.K l > C                 ",
"        2 F K 7.c.e.F / h.M t     Z ^ i.u.n.U.C.A u                   u R ~ 7.v.V @ a | Y 5 1 1 2 l x 2 2 +                     ",
"          z A K t.Z.e.H s.g.1   a X.!.k.u.i.U.~.j.m q                   w M ) N 5 x R S.J.0.G A : +   8 $.                      ",
"            1 c F O.~ ! / t.b   = j.`.M.u.u.V.%Xm.Q -                     q 6 x V z.W.`.k.y.K 7.N                               ",
"              , - : 1 / h.O.W r D a.P.L.k.y.a.].].r.m u                   6 v 0.J.%XW.J.i.( o.Z.N |                             ",
"                  D.  < s - - + ^ k.~.%Xx.u.u.M.W.m.K ;                 C 0.y.N.T.W.N.i.i.K 8.s.l a                             ",
"                        '.    @ ^ k.I.W.L.a.y.a.I.K.+.m q             C ( i.M.Y.&XB.p.i.K 8.S.7.5 8                             ",
"                              9 ^ i.M.%X`.k.u.u.C.K.~ A @           9 o.i.M.Y.Y.L.p.y.y.( s.s.K 5 |                             ",
"                              p ^ u.C.%XI.k.u.u.j.f.s.S <           5 q.x.T.&XY.a.y.i.o.r.S.e.A 5                               ",
"                              + ^ u.x.W.T.n.i.y.w.v.f.K m u       C ^ i.M.%X`.L.i.y.y.o.b.d.K c f                               ",
"                              8 D y.k.~.`.L.p.o.Q 8.f.O.m p       > o.k.T.W.V.k.i.y.( ~ 9.7.K c _                               ",
"                                = 0.u.M.`.Y.q.F F ~ v.d.M .       > o.M.`.`.k.i.u.( H s.d.K A e                                 ",
"                                = 0.u.z.K.A.~ F F ~ 9.8.S e       C i.T.`.B.a.y.o.K ) S.h.H m d                                 ",
"                                  B ( ( 8.v.9.H F ~ v.s.K v O   Z E a.T.E.a.y.o.H ) f.S.O.A 5                                   ",
"                                  = A F 7.v.Z.K F K d.s.K c O   t V N.~.a.y.o.H ~ s.f.r.H M =                                   ",
"                                    l F ) 9.f.) F F ) Z.) x _   # V L.U.q.K G H d.Z.7.K A 5                                     ",
"                                  D.1 A K 8.S.r.G F ) f.9.m y   # R z.9.K F G 7.S.g.K A z                                       ",
"                                      z A K h.S.~ A S 8.7.l ;   3 ..Z.K F G 7.9.s.K A l                                         ",
"                                      g z F Q s.~ x w s w 3 4 p 4 R O.G G ~ Z.d.K M z                                           ",
"                                        8 z m V R :.=X+X+X^.^.H.H.P i M G 8.e.V v i t                                           ",
"                                          L j j ;.:X>X=X:X>X>X=XOX).H.P m +.P i P H.;.j {                                       ",
"                                      ] T ).;X=X:X>X>X;X-X;X>X>X>X;X>X/.P j G.OX_._.OX/.T P                                     ",
"                                  { T H.;X:X:X-X>X>X;XOX+X*X-X:X;X*X:X-X+X_.*X-X=X=X>X-X+X^.}                                   ",
"                                  :.:X;X=X=X-X:X=X;X-X*X=X+X).+XOX-X=X).).+XOX).*X>X>X;X=X_.H.T ]                               ",
"                                :.;X:XOX+XOX_.+XOX;X-X*X).).).).).+X)._.+X).).).*X*X*XOX).).).).G.U                             ",
"                              3 ^.*XOX(.(.(.(.(._.+X_.(.(.(.(.(.(.(.)._.OX).).).(.(.(.(.(.(.(.(.(.T                             ",
"                                                                                                                                "
};
