/* XPM */
static char *dc7f31b54b244a3ffd29e3044aea5194VqNch5Z6Xtk9Mtg5[] = {
/* columns rows colors chars-per-pixel */
"64 64 105 2 ",
"   c None",
".  c gray19",
"X  c #263942",
"o  c #293D46",
"O  c #2B3E49",
"+  c #2F434E",
"@  c #324555",
"#  c #364859",
"$  c #34495D",
"%  c #394C59",
"&  c #3A4D5E",
"*  c #3E4F5F",
"=  c #384E62",
"-  c #3D5264",
";  c #405464",
":  c #425664",
">  c #44596A",
",  c #475C6F",
"<  c #4D6373",
"1  c #536878",
"2  c #53687B",
"3  c #596F7C",
"4  c #6F6F6F",
"5  c #62787F",
"6  c #556F84",
"7  c #5E7A8C",
"8  c #637D94",
"9  c #6E8385",
"0  c #6A808A",
"q  c #688095",
"w  c #778A92",
"e  c #7D9190",
"r  c #7A9096",
"t  c #7B9299",
"y  c #6B87A0",
"u  c #7290A9",
"i  c #7D9CB4",
"p  c #879696",
"a  c #8D9B9D",
"s  c #8FA39F",
"d  c #8CA2A4",
"f  c #94A6A4",
"g  c #93A9AB",
"h  c #88A2B2",
"j  c #8DA3B2",
"k  c #82A2BB",
"l  c #9AB2B1",
"z  c #9FB7B4",
"x  c #A1A4A3",
"c  c #A4A7A7",
"v  c #A7B1B2",
"b  c #A5BDBA",
"n  c #AAC3BF",
"m  c #85A7C2",
"M  c #8CADCA",
"N  c #98B5C2",
"B  c #90B3CF",
"V  c #91B4D1",
"C  c #94B9D6",
"Z  c #97BCDA",
"A  c #9CBEDC",
"S  c #9FC1D8",
"D  c #9CC0DF",
"F  c #AEC5C1",
"G  c #AEC5C2",
"H  c #B2C9C5",
"J  c #B6CDC9",
"K  c #BBCDCA",
"L  c #BFD2CF",
"P  c #A1C6E5",
"I  c #A3CAEB",
"U  c #A5CDEE",
"Y  c #A6CDEE",
"T  c #A7CDEE",
"R  c #A7CEEE",
"E  c #A7CEEF",
"W  c #A8CEEE",
"Q  c #A9CEEE",
"!  c #A8CFEE",
"~  c #A9CFEE",
"^  c #A9CFEF",
"/  c #AACFEE",
"(  c #ABCFEE",
")  c #ABD0EE",
"_  c #B0D3EE",
"`  c #B6D6EE",
"'  c #BAD7E9",
"]  c #BDDBED",
"[  c #A7CFF0",
"{  c #A9D0F1",
"}  c #C4D6D5",
"|  c #CDDCDB",
" . c #D3E0DE",
".. c #C8E1EC",
"X. c #D6E6E3",
"o. c #DAE5E4",
"O. c #D4E8EB",
"+. c #DFE9E8",
"@. c #DCEBE8",
"#. c #DEEDEB",
"$. c #E2EBEA",
"%. c #E0EFEC",
"&. c #E5F0EE",
"*. c #EAF3F1",
"=. c #EEF5F4",
/* pixels */
"                                                                                                                                ",
"                                                                                                                                ",
"                                                                                                                                ",
"                                                                                                                                ",
"                                                                                                                                ",
"                                                                                                                                ",
"                                                                                                                                ",
"                                                                                                                                ",
"                                      Q Q Q Q (                                                                                 ",
"                                    R R R R T T Q                                                                               ",
"                                  Q U T R U U U R R       Q Q               ( Q [ U Q R Q                                       ",
"                                Q U T U U U U U R R Q     R R R         Q R R T U R R R R Q Q                                   ",
"                                T T [ T U T U U R U R     R R R       Q R R T U U U U T U T U (                                 ",
"                                T U U U T U T U U U R     Q R       Q U U R U T T U T U T U T U Q                               ",
"                                U T U T U T U U R R R             Q R U U U T U U T U T U T U T Q                               ",
"                                Q U T U T U U U R R Q           Q R R U U U U T T U T U T U T U R )                             ",
"                                Q R R R R U U U R Q           Q T U U U U T U T T U T U T U T U R R                             ",
"                                  Q R R U U U Q Q           R U U T U U T U T U U T U T U T U T R R       Q R R )               ",
"                                      ) Q )             Q R R U T U R R Q U U U T U T U T U T U R R     Q Q U T R Q             ",
"                                                ) Q Q T R R R U U T T A B U U U U T U T U T U T U R )   Q U T U R R             ",
"                      Q Q T T U U T U T R R U U U T U T R U R R T U T N w i I U T U T U T U T U U U Q   R R U T U R Q           ",
"                  Q T R U U T T T U T U R R U U T U T U U R U R U T P g s 9 h I U T U T U T U T U U Q   R R U U U R [           ",
"                  Q U T U T T U U T U T U T U T U T U U U U U ) T U N f s s 9 i [ Q T U T U U U U T Q   R R R U U U R Q         ",
"                Q U T U T U U T T U T U T U T U T U T U U U U U U S g f f s s 7 m T U T U U U U T U U ( Q R U U T U R Q         ",
"                R R R U T U T U U T U T U U U T U T U T U R U U D g f f f f f p 5 Z [ [ [ R R U R R R Q   R U R U T R Q         ",
"                R R U U U U U T T U T U U U U U T U T U U U U S g f a p p p e e 5 7 V C D P I [ [ R R R   Q U R T U R )         ",
"              q V P [ [ T [ U U U T U T R R R R T T T T I Z i 5 < : % + + O X O o X + + % : < 7 u m Z U Q   R R U U Q           ",
"            # # - 1 u Z T T U U T U T U R R R Q I V i 7 , % X + X O O O o X X X X o O O + + + O O : w j k     [ T Q Q           ",
"            * # # @ # , u D [ [ U T T T U Z i 7 > @ o X o + @ = = = = = = $ @ # $ = $ $ = $ = $ , a 4 4 p :                     ",
"              * # # # # # < i P T U C u 6 - # @ $ = $ # = $ $ = = $ = - : : > , > > - : > > 1 1 d c . . p 0 > &                 ",
"                1 = # # # # % 6 u 6 - = > 1 8 w w 8 9 5 3 < < < 3 5 r d d d l z l g d d l l b l L x . . c F l d t h             ",
"                  y % $ # # @ @ : 3 r d d b J } H F J H n g v n b z n n l z b J J H z F H G F z F K x v L H H J J F             ",
"                  P 6 # : 3 8 g l J } L K  .#.#.}  .#.@. .L K L L L } } } K X.@.@.X.}  .@.X.o.} |  .+.@.X.X.O...'               ",
"                  Q 8 % e }  .X.| #.#.#.| @.*.$. .o.*.&.&. .#.&.%.@.#.$.| | X.#.X.$.| o.%.@.%.X.$.&.%.@.&.$.@.O.` Q             ",
"                  M > # = 1 r v | #.#.$.@.&.=.*.o.$.=.*.&.*.&.=.=.$.%.=.%. .$.*.o.*.$.+.*.o.*.$.o.&.$.&.#.O..._ R R             ",
"                h < # # # @ # 8 P ` ] ..O.O.#.#.@.@.&.+.+.*.*.*.*.$.$.*.*.@.$.$.o.*.o.f o.o.@.$.X.#.O...] _ T U R R Q           ",
"                : # # # # < k U R U U U Q T _ ` ] ....} d } $.#.#.#.#.$.%.%.$.@.X.#.a w @.O.O...] ` ) T [ R T U R R Q           ",
"              & # # # > u D T T R R U U U U [ R R R A 1 2 P { ` ` ` ` ] ] ] ] ] ] j > M _ T Q T U [ U U U R U T U R [           ",
"            & # # > y C T T T U T U U U U U U R U [ m , M T U U R U U U U U [ R u % 8 U [ R T U R R U U U U T U U U R           ",
"            , 6 u Z R [ U T U T U T U U U U R U R I i B T U T U U U U U U U [ P < 1 A T U U T U R U R U U T U T U U R           ",
"            A I T T T U U U T U T U T U T U T U U T U T Q U U T U U T U U U T M 8 Z [ U U T U T U T U T U T U U U T Q           ",
"            Q R U T [ [ U T U T U T U T U T U T T U T U U U T U U U U T U R [ D P [ U U T U T U T U T U T U U U T U )           ",
"            R R T U T U T U T U T U T U T U T U U T U U T U T T T T T U R R R R T U T U U T U R U T U T U T R U U Q             ",
"            Q R U T U T U T U T U T U T U T U T T U T U U T U T T T T ( ) Q T Q Q T T T U U U R T U T U T U R R Q               ",
"              R T U T U U T U T U T U T T U T U R U U U R Q )         ( Q (           Q ) Q R R U Q R R Q R R                   ",
"              Q U U U T T U T U T U T U U T U T R R U Q         { T U T R R U Q Q                                               ",
"                T R U T U T U T U T U T U T T U R R )         Q Q R U U R U U T R Q                                             ",
"                ( U T U T U T U T U T U T U T T Q           Q U R R U U U U T U R R Q                                           ",
"                  Q R R R U U U R U U U U T Q             ( [ U T U T U T U T U U U R                                           ",
"                      Q R U U U R R U U T Q     Q Q R Q   T R R U T U T U T U T U R R Q                                         ",
"                          Q Q Q Q Q Q (       { U R R Q   T U U T U T U T U T U U U R Q                                         ",
"                                              T U R R     T U U U T U T U T U T T U R                                           ",
"                                              ( U Q )     R R U T U T U T U T U U U Q                                           ",
"                                                          T R R U T U T U T U T T T )                                           ",
"                                                            ) R U U T U U U R R T )                                             ",
"                                                                T Q Q T U [ R )                                                 ",
"                                                                                                                                ",
"                                                                                                                                ",
"                                                                                                                                ",
"                                                                                                                                ",
"                                                                                                                                ",
"                                                                                                                                ",
"                                                                                                                                ",
"                                                                                                                                "
};
