/* XPM */
static char *_5e339b035a341fedead7acd8916bc940YPnRP0f1UQtYBpg[] = {
/* columns rows colors chars-per-pixel */
"64 64 219 2 ",
"   c None",
".  c black",
"X  c #030201",
"o  c #070605",
"O  c #060606",
"+  c #070706",
"@  c #090502",
"#  c #0F0A07",
"$  c #090909",
"%  c #0D0E0D",
"&  c #160E09",
"*  c #100E0C",
"=  c #161615",
"-  c #26170F",
";  c #29160B",
":  c #2F1B0E",
">  c #2F1A0F",
",  c #351F10",
"<  c #3B1F11",
"1  c #2E2319",
"2  c #392011",
"3  c #3E2112",
"4  c #37271A",
"5  c #222422",
"6  c #232523",
"7  c #272827",
"8  c #2C2A27",
"9  c #2E2D2B",
"0  c #2D302E",
"q  c #3B3026",
"w  c #323332",
"e  c #343937",
"r  c #383D3B",
"t  c #393E3B",
"y  c #422514",
"u  c #452415",
"i  c #472817",
"p  c #4B2917",
"a  c #4E2D17",
"s  c #522A1A",
"d  c #532C19",
"f  c #592F1C",
"g  c #53311A",
"h  c #583419",
"j  c #5C361B",
"k  c #5F391B",
"l  c #62331F",
"z  c #623A1D",
"x  c #673D1F",
"c  c #463522",
"v  c #4C3621",
"b  c #5B3421",
"n  c #503823",
"m  c #543B24",
"M  c #473C35",
"N  c #683522",
"B  c #6C3823",
"V  c #683D26",
"C  c #723A25",
"Z  c #783E27",
"A  c #763E28",
"S  c #793D2B",
"D  c #4B443A",
"F  c #5B4334",
"G  c #6B4222",
"H  c #65422B",
"J  c #754526",
"K  c #7B4724",
"L  c #774E26",
"P  c #75452A",
"I  c #7C4129",
"U  c #7D5228",
"Y  c #634938",
"T  c #3D4140",
"R  c #3E4240",
"E  c #414341",
"W  c #424643",
"Q  c #424644",
"!  c #424745",
"~  c #444845",
"^  c #454946",
"/  c #4D4943",
"(  c #454B48",
")  c #484C49",
"_  c #494E4B",
"`  c #4A4E4B",
"'  c #4D514E",
"]  c #4C524E",
"[  c #4E534F",
"{  c #4F5450",
"}  c #535552",
"|  c #555954",
" . c #575B56",
".. c #575C57",
"X. c #575D57",
"o. c #5A5C54",
"O. c #5A5E59",
"+. c #5A5F59",
"@. c #5B5F59",
"#. c #605A4F",
"$. c #5D615B",
"%. c #5E625B",
"&. c #5F635C",
"*. c #656259",
"=. c #60645E",
"-. c #636861",
";. c #676B62",
":. c #676A63",
">. c #666B64",
",. c #696B62",
"<. c #686C65",
"1. c #686D65",
"2. c #6A6E66",
"3. c #6E7166",
"4. c #6D7168",
"5. c #6C726B",
"6. c #6F736A",
"7. c #707368",
"8. c #71756C",
"9. c #73776E",
"0. c #72776F",
"q. c #74776C",
"w. c #74776E",
"e. c #74786D",
"r. c #75796E",
"t. c #757970",
"y. c #747971",
"u. c #777A70",
"i. c #777B72",
"p. c #767B73",
"a. c #797C71",
"s. c #787D73",
"d. c #7B7E74",
"f. c #7A7E75",
"g. c #797E76",
"h. c #7B7F77",
"j. c #7D7F74",
"k. c #864F25",
"l. c #82432B",
"z. c #8A472F",
"x. c #814D28",
"c. c #864B2C",
"v. c #8C4F2E",
"b. c #8A5425",
"n. c #88532B",
"m. c #8E552F",
"M. c #84582B",
"N. c #944D32",
"B. c #995433",
"V. c #9E5436",
"C. c #985E31",
"Z. c #9F5835",
"A. c #A05F36",
"S. c #A75B38",
"D. c #A06633",
"F. c #A56438",
"G. c #AE603B",
"H. c #AB6539",
"J. c #A86938",
"K. c #AD6C39",
"L. c #B4653D",
"P. c #B16A3D",
"I. c #B26F3E",
"U. c #BC6D3F",
"Y. c #AD703D",
"T. c #B17139",
"R. c #B4713F",
"E. c #B2743F",
"W. c #B76B40",
"Q. c #BE6A45",
"!. c #B37642",
"~. c #B87040",
"^. c #B87441",
"/. c #BB7541",
"(. c #BD7A42",
"). c #C07142",
"_. c #C67346",
"`. c #C07844",
"'. c #C37B47",
"]. c #C67844",
"[. c #C77C46",
"{. c #CC7B47",
"}. c #CA7D46",
"|. c #CD7F47",
" X c #CB7F48",
".X c #CF7C4A",
"XX c #7C8177",
"oX c #7E8176",
"OX c #7C8178",
"+X c #7F8378",
"@X c #7D837B",
"#X c #7E847B",
"$X c #81847A",
"%X c #82867D",
"&X c #83897F",
"*X c #84897F",
"=X c #C88246",
"-X c #CF8C47",
";X c #CE8048",
":X c #CF8149",
">X c #D1814A",
",X c #D2834B",
"<X c #D1854A",
"1X c #D4814E",
"2X c #D4854C",
"3X c #D8874F",
"4X c #D5884C",
"5X c #D78A4D",
"6X c #D98C4D",
"7X c #D39149",
"8X c #D8944C",
"9X c #DB8B50",
"0X c #DE8F50",
"qX c #DD9750",
"wX c #E39D53",
"eX c #878B82",
"rX c #898E84",
"tX c #8B9187",
"yX c #90958C",
/* pixels */
"                                                        5.5.5.5.5.5.5.5.5.@.                                                    ",
"                                                      @XyXrXtXtXtXtXrXrXeXOX                                                    ",
"                                                      eXd.OX%XoX$XoXr.5.6.7.:.                                                  ",
"                                                      XXi.OXoXa.j.$X7.-.1.1.+.                                                  ",
"                                                      1.a.s.a.j.d.oX5.:.1.:.                                                    ",
"                                                      ..i.i.a.a.a.$X8.6.1. .                                                    ",
"                                                      { r.r.oXi.a.g.8.8.8.&.W                                                   ",
"                                                  d.&.` 1.r.d.6.i.oXi.d.8.| =.i.i.                                              ",
"                                i.-.        -.@X@X@Xq.` -.q.7.<.8.i.r.d.8.| d.&XOX@X@X+.      d.i.                              ",
"                            +.OX%X8.+.  -.&X@Xi.8.6.5.` } i.p.q.d.i.i.d.8.+.@Xi.6.5.d.@X$.~ r.&XrXOX                            ",
"                          -.#Xd.a.d.1.=.6.eXi.d.p.q.0. .} $X$X$X$XOXd.i.2.&.@Xi.8.6.5.d.=.3.eXeX%X%X8.                          ",
"                        +.OXi.r.0.0.q.5.+.8.OXg.g.d.8.-.} 8.u.d.d.d.i.8.-.-.@Xr.i.8.8.:.[ $XeX*XeXOXd.1.                        ",
"                        1.oX8.i.d.i.d.g.-.+.d.0.s.2. ./ E o.#.#.#.#.#.} / { *.8.i.8.q.| 8.eX&X&X%XeX%XXX                        ",
"                          :.8.i.0.q.8.i.g...-.2.*.Y V x.z x.J x k z z i i 3 : D | 6.=.=.rX$X$XoXa.%X$X$.                        ",
"                          ( &.d.i.q.0.s.g.2.D Y P A.P.!.v.F.v.K x x x g h a 3 : 1 q ^ d.eX$XOX$X$XOX&.                          ",
"                          { } =.i.0.i.d.5./ V B.G.K.U.(.C.(.C.m.J G G h j g i 2 2 : % +.d.r.OXeXa.| =.]                         ",
"                          d.d.| 6.9.3.1./ g F.K.~.~.(.-XK.'.J.F.C.U J j z h a y 2 2 @ + R :.8.8.| 1.$X,.                        ",
"                        y.eXoX6.] 1.=.D G K W.W./.`. X8XK.'.!.J.F.C.J j z j g p y 2 @ . % E | { 5.$XOXd.,.                      ",
"                      -.OXa.q.d...^ M x A.n./.(.[.=X,XqXW.'.~.K.J.F.m.z z k g a i 2 @ . . % w 1.*X%XeX$Xr.                      ",
"                      p.i.i.a.$Xi.D G C.W.m.[. X:X:X5XqX!.(.K.~.P.P.J.J z k h g p 3 @ . . . = o.a.oX%X$Xa.;.                    ",
"                    ^ &.8.r.d.p.| b Z.K.(.D.2X:X5X5X6XqX~.'.~.~.R.R.Y.L k j j g a 3 @ . . . . $ ;.#XoXa.r.o.                    ",
"                    1.| &.6.r.d.D c.W./.=XZ.9X9X6X0X9XqXY.].!.~.R.R.R.U k j h g a y @ . . . . + W q.9.:.$.| ..                  ",
"                    OXd.5.:.6.*.V Z.W.{.:XC.4X9X0X6X5X8XK.=X(.^.^.^.!.M.z j j g a 3 @ . . . . . * ..$.:.6.8.;.                  ",
"                  d.r.8.d.d.:.F B.F./.=X5XC.9X4X0X5X5X8XK. X'.^.^./.!.M.x k j j a , @ . . . . . o 8 :.oXr.r.8.o.                ",
"                  r.r.r.8.q.:.H A.F.].:XqXD.5X4X8X6X2X6XJ. X X/.^.^.!.U x k j h a 2 @ . . . . . . 6 6.8.8.r.r.;.                ",
"                  r.r.6.8.6.&.L H.H. X>XqXT.5X2X6X3X4X7XK.:X=X(./.^.!.U x z j h a y @ . . . . . . 5 :.7.8.7.a.;.                ",
"                  2.q.6.8.1.D x.L.P. X2XwXT.9X4X6X,X4X7X~.9X[.(.(.^.!.M.x z k g a y @ . . . . . . @ ^ 7.8.8.8.$.                ",
"                o.&.+.+.+.{ c k.W.W.:X5XwXY.9X5X6X,X4X7XT.5X=X(.(.^.!.M.x z k h a y @ . . . . . . . 7 |  . .| | :.              ",
"            1.8.rXtXyXyXyX:.v k.P.~.:X6XwXT.9X5X6X:X4X7XT.6X2X(.(.^.E.M.x z k h a 2 @ . . . . . . . 6 8.tXeX%XyXtXOX8.:.        ",
"          ^ i.8.p.2.:.8.i.+.m k.W.[.5X0XwXT.6X5X2X-X4X7XT.6X,X'.'./.!.M.G x k h a , @ . . . . . . . 5 1.a.s.oX%Xi.8.r.{         ",
"          ) eX8.d.i.6.1.8.+.m k.Q.,X5X9XwXT.9X,X,X:X4X7XT.4X,X'.'./.!.M.G x z h a 2 @ . . . . . . . 5 p.a.d.$X%Xd.i.q.)         ",
"          ( eX8.g.eX%Xi.8.$.m k._.5X5X5XwXT.9X,X,X:X4X7XT.6X4X'.(.^.E.U x x z j a , @ . . . . . . . 5 @X8.i.a.oXa.j.q.]         ",
"          ) OXr.OXd.$XOXi.| m b.].5X5X5XqXT.3X>X>X.X2X7XH.9X2X(.(.W.E.U x G x k i , @ . . . . . . . 5 eXr.a.d.oXd.s.q.{         ",
"          ) 8.8.i.i.a.d.i.+.m b.=X4X2X2XqXT.3X:X>X=X2X7XF.2X:X(.(.R.R.L G G x g i , @ . . . . . . . 5 &Xg.s.i.d.s.9.1.`         ",
"          Q 1.<.:.<.:.5.i.| m b.}.2X5X,XqXT.5X}.:X=X2X7XJ.2X}././.R.Y.M.G G H F m 3 @ . . . . . . . 5 d.d.6.4.8.1.:.&.`         ",
"            =.&.$.$.&.&.-.{ m b.}.5X2X2XqXT.4X;X}..X>X-XF.5X}././.R.Y.M.x F +.} M y @ . . . . . . . 5 -.:.-.&.=.+.+.} Q         ",
"            R Q W ` } } ] ^ m b.>X5X,X>XqXJ.4X.X}.=X2X-XF.1X.X^.^.~.Y.U x q r | q 2 @ . . . . . . . 5 ) { } { ) Q Q Q           ",
"                R 8.yXyXOX&.v b.}.2X>X2X8XD.2X=X:X}.2X7XK.2X[.^.^.K.Y.U k 1 7 ) ) 4 @ . . . . . . . 5 4.eXyX$X$.                ",
"                Q d.tXeXoX&.v k.[.>X:X>X8XD.,X:X:X X2X7XP.|.;X(.^.!.Y.L j M W E +.M @ . . . . . . . 5 %XoX8.5.+.                ",
"                Q 6.&X&Xa.&.v b.}.:X>X2XqXK.,X X:X:X>X7XL.}.}.E./.K.~.L m &.9 = w q @ . . . . . . . 5 eXi.i.i.$.                ",
"                W :.i.+XoX&.m b.:X:X>X>XqXK.>X:X>X>X>X-XJ.2X}.U./.~.!.L 4 ` 7 7 9 q @ . . . . . . . 5 @Xi.0.0.=.                ",
"                W -.r.oXj.+.n b.}.:X:X:XqXK.>X X}.,X>X=XF.3X;X`./.~.Y.L 4 ~ w w r 1 @ . . . . . . X 5 p.8.1.1.&.                ",
"                W :.y.s.8.o.v b.=X:X:X:X8XJ.>X.X=X>X4X-XI.3X}.E./.~.Y.U , ~ } } 9 - @ . . . . . . . 5 8.6.&.=.o.                ",
"                W :.5.1.1.| n b..X}.;X;X8XC.:X:X;X,X4X7XI.3X}.U.^.Y.Y.L y 5 9 5 : 2 @ . . . . . . . 5 :.6.-.=.|                 ",
"                D X.=.$.} ` m b.}.}..X:X8XC.,X,X;X,X2X,XC.5X[.^.^.Y.Y.G p 2 > 2 i 2 @ . . . . . . . 5 &.-.&.&.|                 ",
"            ( ] ) ` { ] ^ E n b.=X;X;X:XqXD.2X,X;X,X2X=XC.,X].U.^.P.K.G p p u u y : X . . . . . . . 5 ` ] } { ] ) ] ]           ",
"            d.eXyXyXyXyXtX,.v b.}.;X X:XqXJ.5X>X;X2X>X'.C.,X`.R.P.H.J.G i u 3 3 3 : @ . . . . . . . 5 @XrXrXeX*X$X$X8...        ",
"          Q h.a.r.i.j.j.i. .n b.;X;X X>X5XC.>X:X:X,X,X'.C.:X/.P.P.F.F.G p y u y y : . . . . . . . . 5 @X1.1.3.q.oX$Xr.)         ",
"          W d.r.d.oXj.a.r.| m b.}.>X}.}.,Xm..X.X>X>X|.=XZ.}.U.J.G.A.A.V p p i u y : X . . . . . . . 5 d.1.:.8.$XeXoXq.]         ",
"          Q @Xy.OX$Xj.8.8.| n b.}.}.].].-Xn.2X}.{..X{.}.m._.P.S.Z.A.m.z p p i u u : @ . . . . . . . 5 eXr.1.8.$X$XoXq.]         ",
"          ( eXi.$XoXd.8.7.+.v k.}.[.).).-Xx..X_.{. X_.[.n.).S.A.Z.N.c.z a p i u y 2 @ . . . . . . . 5 &XoXa.j.j.a.r.q.]         ",
"          ( OXa.j.oXoX8.6.| m b.}..XW.L.=Xx._.)._._.).(.n.U.S.B.B.n.n.k p i u u 3 ; X . . . . . . . 5 @X$XoXj.$XoX8.8.}         ",
"          ~ d.a.d.oX8.6.1.} m b.{.}.W.L.=Xx._.U.].].U./.k.L.S.z.N.z.c.z p i u 3 2 ; . . . . . . . . 5 i.d.OXa.d.%Xi.,.`         ",
"            :.6.6.:.-.&.-.] n b._._.L.L.`.x.Q.L.U.U.L.^.x.G.V.z.z.l.Z h i u u 3 2 ; @ X . . o . . . 5 ..1.6.<.1.1.&.} Q         ",
"            { { ) ^ } } } ) n k.)._.S.S.(.x.Q.G.L.L.G.I.x.A.N.l.I Z C g u u 3 3 2 ; + o o O o o @ + 6 ( ` ] } ] ) R e           ",
"                E 2.%X%XoX+.v k.).).S.A./.K L.S.G.S.S.G.K B.z.Z Z C N p 3 y 3 2 : ; % $ $ $ $ $ $ $ 8 2.%XrX%X=.Q               ",
"                Q :.5.d.oX&.v k.Q.G.Z.B.R.K G.V.V.V.V.S.I N.l.C C B l 3 3 3 2 , > #   O * # o   & # 8 @Xi.6.8.&.                ",
"                W 1.8.i.i.&.v k.G.V.B.N.H.J S.N.N.N.N.V.A z.I N B B j 3 3 > > -         o       + O 9 eXi.r.q.@.                ",
"                W 8.a.8.8.&.v x.S.B.N.z.Z.B V.z.N.z.z.V.Z z.S N N d s < & o @                       9 @Xq.i.i.=.                ",
"                W 8.s.8.i.&.v K B.N.z.l.B.x N.l.z.z.z.B.B C h d                                     R 0.q.8.i.<.                ",
"                Q 8.i.6.6.| v K N.z.l.Z v.l z.Z I N N A                                             t 1.0.i.oX4.                ",
"                W 1.2.:.-.} n K z.l.I C I b S f d                                                   t -.q.d.$X1.                ",
"                W $.&.&.$.] 4 z Z B l f d                                                           t +.1.1.6.=.                ",
"                R t W R r r % 2 p 8 -                                                               t t E E ^ ^                 "
};
