/* XPM */
static char *_71cfd89948d4403b74f83bea20f450cwdkFqACmHQfSCkAC[] = {
/* columns rows colors chars-per-pixel */
"64 64 184 2 ",
"   c None",
".  c #020202",
"X  c #080500",
"o  c #050A05",
"O  c #02010B",
"+  c #0B0C0B",
"@  c #090A04",
"#  c #100D06",
"$  c #0D100C",
"%  c #101308",
"&  c #171A07",
"*  c #020111",
"=  c #080516",
"-  c #0C0E14",
";  c #04051B",
":  c #100F15",
">  c #141414",
",  c #161C12",
"<  c #191C16",
"1  c #17161A",
"2  c #18171D",
"3  c #1C1C1C",
"4  c #211D1C",
"5  c #172106",
"6  c #1D201B",
"7  c #1B2212",
"8  c #22231F",
"9  c #232C1C",
"0  c #262B15",
"q  c #2A3418",
"w  c #313B19",
"e  c #1E1D22",
"r  c #1B1D2A",
"t  c #1F2022",
"y  c #242424",
"u  c #282725",
"i  c #252B22",
"p  c #292B25",
"a  c #252529",
"s  c #28262C",
"d  c #2C2C2C",
"f  c #312E29",
"g  c #2D3426",
"h  c #2E312B",
"j  c #33332E",
"k  c #373C2B",
"l  c #262930",
"z  c #2E2E32",
"x  c #242239",
"c  c #302F35",
"v  c #332F3D",
"b  c #2D3133",
"n  c #333333",
"m  c #383633",
"M  c #363933",
"N  c #3A3B35",
"B  c #35343A",
"V  c #37393C",
"C  c #3D3D3C",
"Z  c #39343B",
"A  c #413F3C",
"S  c #3F422F",
"D  c #38432A",
"F  c #3D4235",
"G  c #3F4139",
"H  c #414237",
"J  c #42423E",
"K  c #464D38",
"L  c #4B543E",
"P  c #4E5A34",
"I  c #363642",
"U  c #3D3C42",
"Y  c #3E3B49",
"T  c #413F43",
"R  c #423C4A",
"E  c #424242",
"W  c #444A46",
"Q  c #44434A",
"!  c #48474C",
"~  c #4B4B4B",
"^  c #4A4844",
"/  c #4F5445",
"(  c #505D42",
")  c #545949",
"_  c #52554A",
"`  c #4C4B50",
"'  c #545454",
"]  c #5B5B5B",
"[  c #576144",
"{  c #5C644E",
"}  c #596243",
"|  c #5F6853",
" . c #636C4D",
".. c #64714A",
"X. c #6B774F",
"o. c #616954",
"O. c #68655E",
"+. c #63645E",
"@. c #6C7554",
"#. c #687559",
"$. c #66725A",
"%. c #71775C",
"&. c #717B5C",
"*. c #5F5D60",
"=. c #626262",
"-. c #616161",
";. c #646464",
":. c #676767",
">. c gray38",
",. c #686669",
"<. c #686868",
"1. c #6A6A6A",
"2. c #68686A",
"3. c #6D6D6D",
"4. c #6A6A6A",
"5. c #6B6A64",
"6. c #727C61",
"7. c #73746C",
"8. c #6C6B70",
"9. c #707070",
"0. c #747474",
"q. c #7D7D7D",
"w. c #7B7B7B",
"e. c #7F8C5E",
"r. c #758459",
"t. c #788460",
"y. c #7D8669",
"u. c #828C64",
"i. c #808768",
"p. c #838F69",
"a. c #8C9D66",
"s. c #848E74",
"d. c #859070",
"f. c #899674",
"g. c #8D9B72",
"h. c #909A77",
"j. c #95A56D",
"k. c #95A575",
"l. c #9BAE74",
"z. c #B5CB7C",
"x. c #838383",
"c. c #8B8B8B",
"v. c gray55",
"b. c #8A8A8B",
"n. c #82808B",
"m. c #959695",
"M. c #9C9C9C",
"N. c #9EAD82",
"B. c #9CA393",
"V. c #A9B784",
"C. c #A7B881",
"Z. c #A8B589",
"A. c #A3B384",
"S. c #A3AD92",
"D. c #A3A3A3",
"F. c #A8A8A6",
"G. c #A4A5AC",
"H. c #ACACAC",
"J. c #B3B3B3",
"K. c #BCBCBC",
"L. c #BECF8B",
"P. c #B0C286",
"I. c #BEDA87",
"U. c #B5C690",
"Y. c #B6C699",
"T. c #C3D98B",
"R. c #C2D493",
"E. c #C3D79A",
"W. c #D5EA9C",
"Q. c #DBF29B",
"!. c #C1D1A4",
"~. c #D3E7A2",
"^. c #DCF2A8",
"/. c #E4FAA8",
"(. c #E0F3B9",
"). c #C3C3C4",
"_. c gray81",
"`. c #D6D8CD",
"'. c #D4D5D3",
"]. c #D9D8DD",
"[. c #F1F7ED",
"{. c #F4F4F2",
"}. c #FFFFFF",
"|. c #FBFBFB",
/* pixels */
"                                                                                                                                ",
"                                                                                                                                ",
"                                                                                                    . !                         ",
"                                                                                                ' . ' =.<.                      ",
"                                                                                              ] o d 5.1.!                       ",
"                                                                                            ] . o ' 3.3.'                       ",
"                          . C                                                             3.. . s <.*.=.;.=.                    ",
"                        0.~ . . N                                                       c.. . . ! =.1.=.1.!                     ",
"                        ;.;.' + . . d                     D.=.N d e 3 y y z ' q.    }.H.. . . > *.;.,.;.<.!                     ",
"                        ] <.] C o o o . m             w.n 1 1 y d d d d d y 3 3 2 J q.> . o . y ] =.<.;.9.^                     ",
"                        ] <.;.] n . o . . . b.}.{.v.d > y d n j d j n n n N m d n y > + . . . n ] 1.| ;.9.!                     ",
"                        ] ;.-.-.] t . . o o . q.] > y B n m b n m B n n c b n B d B m d 1 . . N ] <.;.1.<.^                     ",
"                        ' <.<.-.] ! o . . . o 2 e h n d B n d B B h n n m n n n N B B B h d . d *.] 1.2.<.!                     ",
"                        ' ;.1.;.] *.m . o . > u n d B m n N n m n n n j b n n n d n m h j B z > ` =.2.-.9.^                     ",
"                          ] <.;.,.' ] o . o e n n B n m z z m d b B N B B N V N C m n B M n n z b ] <.<.-.'                     ",
"                          ' 9.;.;.] ] y . 3 n n h n n n n n N C A C U J E E E A C G U C V m m n n m ' 1.] x.                    ",
"                          ~ <.<.5.] ] a : f V m n n n n C I ! E C E E U J C G U F J m T J C H N n n c Q ` `.                    ",
"                          ' <.;.5.=.] y d n f n z m N J J N C N C J U J J E U G U Q Q Y U A C I V M n a ~ {.                    ",
"                          v.' 9.,.,.A s m n f m U T I E Q U J E J U U G E U U E R Z F K E ! ^ U Q H H N t w.                    ",
"                            ' ;.3.' d m j c C V C U ^ J C C E U E C U J G U J C A ^ V e < r x F U N J N C a                     ",
"                            D.' ~ y j n n U T U W J J N E G J G E C J J C C E E J y 9 ..g.r.K 7 U E C J Q l ~                   ",
"                            }.' < j j n B I ` C b l U Q Q U J C J C U E U G E C a L R.P.A.R.Q.a.7 C Q C U ~ y                   ",
"                            |.^ a d n n Q Q , 5 D F 9 6 V Q B Q J C J E C E E M W V.w . . i p./.k.6 W U E C n !                 ",
"                            J.< d j m A Q , [ !.~.R.U.p.0 M ^ G J U U J C E C d a.< . # o n.[.s.^.[ B E H A Q y ).              ",
"                            w.2 d B m J e #./.l.q % 3 X.f.g F Y U E J E U J M / $.. o . . < G.F I.N.h Q J C ^ u c.}.            ",
"                            C 3 c V A A D ~.k.. o O . '.S.&.b E U J C B E C M 1.P * * X . * O + I.Y.G G U U V 6 ' K.K.          ",
"                            y d v m J d e.Q.q O * O . G.B.#.' m V E J J E J j 7.... = . . + > + T.Z.k n u l u e m.              ",
"                            2 d j N T s C.z.$ . . X . . . L y.B E C C G I ^ B / g.+ > & & 6 . [ (.o.N d d C U u '.              ",
"                          D.> d d m J I P.T.o . . . . @ . { %.n ^ G E G U Q J n | t.> ; - . K W.f.h B a y y - +.J.J.K.'.        ",
"                          M.3 d N n E Y g.Q.D O 2 : 1 e . y.^ J C E u d u U J E g { u.&.| j.L.6.k Q U d M d ]                   ",
"                        {.x.> y e y m Z / R.R., X $ @ . { 6.V C U C + X 1 U U G E Y Q _ 6.| G V J T U u < 1 v.                  ",
"                        ).).n 3 i s 4 f Y ( z.E.X.F _ i.&.k H R U J J < V ^ Q b R N H m B I A H N T T f n ).].M.                ",
"                            J.> y a 3 e V J m 7.k.k.d.) n E R B V N d 6 e t y s E C E J C E C C G N d z _.                      ",
"                          K.H.x.> a m y m J N M M b b I ! C N N e 1 e N N d d E C E J C J U V ^ U t !                           ",
"                        K.      K.2 > y d M J C U Q Y E E C E E E C G E E E J E E J N ^ C N U u 3 w.                            ",
"          m d ~                 D.M.] 3 d V b B F F G C C U U U E C U E C E Q N C U U B V n > !                                 ",
"        u d ^ t               M.).    H.! y d m h n m V N C C G U N C E N N V N N n c z 3 E                                     ",
"        3 E E d m.          J.              ] y a z z B m n M j n V m n n B Z m n d y N D.                                      ",
"      w.2 C ! y D.                              m.n a d z z B B m n d n m d a y 3 d 3 !                                         ",
"      9.3 J E d H.                                u y u 8 8 y y t y y t y t t u d d j y                                         ",
"      x.3 N Q d M.                                > j d d a d y d u d d d d j h m z N 3 D.                                      ",
"      D.> C ^ d x.                              d d d y d n z n n n n n n n B n n b m y 0.                                      ",
"        3 d U n -.                            b.> d y n d m n n b n b B m B B M V m n d ^                                       ",
"        C y C C V                             d y u n B n m n z n m B N C C C C C C U z d                                       ",
"        w.< N E y H.                          > d n N d h B n V J C E C E E J U E G E m y                                       ",
"          2 d E m '                         ! 8 d V c j n Z N E C E E U C C U C U E C C 3                                       ",
"          | 3 B Q d K.                      3 y n n d V V C J J T J U G E E E E C E C E y x.                                    ",
"            2 d V N ^                     x.> j b n m m C E C U G U J C C C C G E C G Q y <.                                    ",
"            x.> n E y x.                  ^ e d M d N N E C C J V M U J V J E G E C C E d ]                                     ",
"              Q 2 n E y G.                y u n B n n z N C E J m B J E U U J C C U J E d '                                     ",
"                u u N C y D.              2 d j n m z d n B C E n n U J E C m B m E E E d ~                                     ",
"                  u y B E 3 q.          M.> u n n C V m n d B E h B G U J m z n d G E E d ~                                     ",
"                    d y N E y E J.      b.> d n n U E C m d d G z n E C C n d n u V E E d '                                     ",
"                      E > d ^ d y ~     q.> d b B C E E G B l m b d U J C j n m d V E T y ]                                     ",
"                        x.3 1 B E b 3 b d u u n n N U C J J u n d d C J J c n m d B E G y                                       ",
"                            ] 1 1 n m m d y d d n N E C U E l n m d C C U b n n h d ^ U y                                       ",
"                                <.y 2 3 y y d d n z E E C Q y z V y B E E d n n d n E C 3                                       ",
"                                      ] n < u u d m N C J N t m C d n C E d d m d V C C 3                                       ",
"                                        |.D.2 d d d d V C d y m C z d N E n d N u C G n n                                       ",
"                                            ] > d d b m n e d n C N a n E B y z d E V y -.                                      ",
"                                              ] > 3 d d M n u y j C d d N N a d n m m >                                         ",
"                                                    t > > 2 y 3 1 d y 2 e y 2 y > 3 > n.                                        ",
"                                                              ] ' ] ] ' ~ ~ ^ ' ]                                               ",
"                                                                                                                                "
};
